<?xml version="1.0" encoding="UTF-8" standalone="no"?>
<svg
   xmlns:dc="http://purl.org/dc/elements/1.1/"
   xmlns:cc="http://creativecommons.org/ns#"
   xmlns:rdf="http://www.w3.org/1999/02/22-rdf-syntax-ns#"
   xmlns:svg="http://www.w3.org/2000/svg"
   xmlns="http://www.w3.org/2000/svg"
   xml:space="preserve"
   enable-background="new 0 0 1000 1000"
   viewBox="0 0 510.5145 732.21075"
   height="732.21075"
   width="510.5145"
   y="0px"
   x="0px"
   id="Layer_1"
   version="1.1"><metadata
     id="metadata61"><rdf:RDF><cc:Work
         rdf:about=""><dc:format>image/svg+xml</dc:format><dc:type
           rdf:resource="http://purl.org/dc/dcmitype/StillImage" /><dc:title></dc:title></cc:Work></rdf:RDF></metadata><defs
     id="defs59" /><path
     id="path4284"
     d="M 151.11774,272.0832 47.0691,342.51188 85.80984,509.41338 0,732.20718 c 1.11794,0.008 211.5711,0 229.16364,0 L 375.26358,358.36859 C 345.33287,344.50314 187.24506,286.25465 151.11774,272.0832 Z"
     style="fill:#eab09c" /><rect
     transform="matrix(0.92128455,0.38888915,-0.38888915,0.92128455,0,0)"
     style="opacity:1;fill:#333a43;fill-opacity:1;stroke:none;stroke-width:0.99127156;stroke-miterlimit:4;stroke-dasharray:none;stroke-opacity:0.5"
     id="rect4190-4"
     width="268.9295"
     height="414.49435"
     x="245.03265"
     y="-109.47018"
     ry="17.978184"
     rx="18.003103" /><path
     id="path17"
     d="m 207.43504,237.66287 c -17.64318,-0.0139 -34.41964,10.34911 -41.73925,27.61545 l -53.00893,125.05094 c 0,0 66.30114,28.17349 83.36668,35.33864 l 53.00892,-125.05093 c 9.75851,-23.02086 -0.99128,-49.59218 -24.01401,-59.35266 -5.75521,-2.43939 -11.73235,-3.59681 -17.61341,-3.60144 z m -0.0133,11.32144 c 4.41079,0.004 8.89468,0.87279 13.21142,2.703 17.26519,7.31791 25.33095,27.24557 18.0101,44.51261 l -8.83609,20.84209 -62.52447,-26.50632 8.8379,-20.84016 c 5.48845,-12.94961 18.06882,-20.72276 31.30114,-20.71122 z"
     style="fill:#eab09c" /><path
     d="m 238.64134,296.20074 c 7.3189,-17.26709 -0.74548,-37.19621 -18.01069,-44.51315 -17.26709,-7.31892 -37.19515,0.74167 -44.51307,18.00781 l -8.83511,20.84125 62.52472,26.50536 8.83415,-20.84127 z"
     id="path19"
     style="fill:#d78c79" /><path
     d="m 240.20606,578.94712 c -3.32596,-1.30418 -7.08053,0.33327 -8.38374,3.65921 L 174.86516,732.2078 c 2.64279,0 7.77906,0 11.34653,0 l 57.65165,-144.87791 c 1.30803,-3.32595 -0.33327,-7.08148 -3.65728,-8.38277 z"
     id="path23"
     style="fill:#d78c79" /><g
     transform="matrix(-0.36792078,0.67597586,-0.67597586,-0.36792078,1131.041,304.22594)"
     id="g53" /><g
     id="g4143"
     transform="matrix(0.92455985,0.38103685,-0.38103685,0.92455985,300.34069,435.09568)" /><g
     id="g4183"
     transform="matrix(0.63574823,0,0,0.63574823,138.45326,142.16634)"><circle
       transform="matrix(0.92455985,0.38103685,-0.38103685,0.92455985,0,0)"
       r="30.593872"
       cy="307.83069"
       cx="463.46985"
       id="path4157"
       style="opacity:1;fill:#ffffff;fill-opacity:1" /><path
       id="path4145"
       d="m 330.38747,448.12463 c -4.43563,-3.40115 -10.60561,-3.26859 -15.5906,2.55654 -2.19475,2.56446 -2.15581,2.59826 -5.17554,6.34605 -1.00582,1.24924 -2.30902,1.54156 -3.7859,0.9183 l -6.31199,-2.66365 c -0.29573,-0.1248 -0.6822,-0.0372 -0.86489,0.19509 0,0 -0.48482,0.60619 -0.66749,0.83843 -0.18215,0.23356 -0.0894,0.52339 0.2053,0.64779 l 8.76361,3.69825 c -0.0922,0.14127 0,0 -4.11911,5.3396 -3.53675,4.58462 -6.87471,8.92968 -8.55172,7.50238 -1.35363,-1.15194 0.98671,-3.64734 2.69911,-5.8379 3.55731,-4.55099 -2.82565,-7.76668 -5.91877,-3.76004 -3.36859,4.36361 -2.05513,8.37053 0.82703,10.57886 4.43469,3.40076 10.6052,3.26951 15.59021,-2.55562 2.19474,-2.56447 2.15489,-2.59865 5.17461,-6.34645 1.00675,-1.24883 2.30901,-1.54154 3.78589,-0.9183 l 6.31199,2.66367 c 0.29575,0.12479 0.68314,0.0376 0.86528,-0.196 0,0 0.48484,-0.6062 0.6675,-0.83846 0.18175,-0.23264 0.089,-0.52245 -0.20568,-0.64686 l -8.76455,-3.69864 c 0.0926,-0.14218 0,0 4.11912,-5.3396 3.53675,-4.58462 6.87472,-8.92968 8.55173,-7.50237 1.35309,1.15061 -0.98671,3.64734 -2.69874,5.83697 -3.55729,4.551 2.82472,7.76628 5.91877,3.76004 3.37005,-4.36192 2.05568,-8.36922 -0.82517,-10.57808 z"
       style="fill:#761134" /></g></svg>