<?xml version="1.0" encoding="UTF-8" standalone="no"?>
<svg
   xmlns:dc="http://purl.org/dc/elements/1.1/"
   xmlns:cc="http://creativecommons.org/ns#"
   xmlns:rdf="http://www.w3.org/1999/02/22-rdf-syntax-ns#"
   xmlns:svg="http://www.w3.org/2000/svg"
   xmlns="http://www.w3.org/2000/svg"
   xml:space="preserve"
   enable-background="new 0 0 1000 1000"
   viewBox="0 0 510.5145 732.21075"
   height="732.21075"
   width="510.5145"
   y="0px"
   x="0px"
   id="Layer_1"
   version="1.1"><metadata
     id="metadata61"><rdf:RDF><cc:Work
         rdf:about=""><dc:format>image/svg+xml</dc:format><dc:type
           rdf:resource="http://purl.org/dc/dcmitype/StillImage" /><dc:title></dc:title></cc:Work></rdf:RDF></metadata><defs
     id="defs59" /><g
     transform="matrix(-0.43087284,0.79163683,-0.79163683,-0.43087284,1237.2732,356.14421)"
     id="g53" /><path
     id="path4284"
     d="M 71.342486,261.37208 0,384.01651 33.551613,601.70688 0,672.23103 l 0,59.97972 251.86579,0 26.46958,-66.98207 72.33967,-72.24962 79.91932,-183.63521 33.82449,-138.91729 -53.86452,-56.88449 -15.70924,-105.66334 -92.63892,-5.91139 -57.88291,69.51315 c 0,0 -82.56777,106.11908 -82.65249,106.17701 z"
     style="fill:#eab09c" /><path
     id="path17"
     d="m 99.51233,212.43095 -56.339688,97.88226 72.053418,40.79019 53.32569,-104.83798 c 11.14331,-21.90768 3.69754,-38.61866 -16.60848,-50.36521 -15.03086,-9.42392 -44.47121,5.38746 -52.43094,16.53074 z"
     style="fill:#eab09c" /><path
     id="path17-9"
     d="m 315.49833,53.724904 c -29.85415,-14.79178 -51.0912,6.389047 -61.25232,26.131836 l -110.12375,213.848 85.16202,34.37704 100.36488,-212.08929 C 342.79273,89.832038 347.94553,70.307655 315.49833,53.724904 Z"
     style="fill:#eab09c" /><path
     id="path17-9-9"
     d="M 411.71517,35.577013 C 378.42144,21.350497 364.99173,41.50407 354.8306,61.246858 L 229.28428,328.08177 301.86237,357.37909 423.72381,91.678941 c 11.10742,-26.72353 13.28216,-43.778312 -12.00864,-56.101928 z"
     style="fill:#eab09c" /><path
     id="path17-9-9-8"
     d="m 453.40377,114.93877 c -34.80398,-15.040226 -43.51816,9.32424 -53.67929,29.06702 l -97.86211,213.3733 71.95695,29.04659 87.88948,-209.95604 c 10.81266,-27.38657 24.14216,-44.94811 -8.30503,-61.53087 z"
     style="fill:#eab09c" /><path
     id="path17-9-9-9"
     d="m 484.24784,202.62923 c -24.35582,-9.20555 -36.32534,11.30478 -46.48646,31.04756 l -63.94206,152.74889 56.77504,22.91817 59.71528,-149.61205 c 8.38353,-27.47211 14.60069,-45.8303 -6.0618,-57.10257 z"
     style="fill:#eab09c" /><path
     d="m 203.58609,651.38903 c -3.32596,-1.30418 -7.08053,0.33327 -8.38374,3.65921 l -29.5339,77.16251 12.58058,0 28.99434,-72.43895 c 1.30803,-3.32595 -0.33327,-7.08148 -3.65728,-8.38277 z"
     id="path23"
     style="fill:#d78c79" /><path
     id="path4214"
     d="M 169.04311,245.31124 115.22606,351.1034"
     style="fill:none;fill-rule:evenodd;stroke:#d78c79;stroke-width:2;stroke-linecap:butt;stroke-linejoin:miter;stroke-miterlimit:4;stroke-dasharray:none;stroke-opacity:1" /><path
     id="path4216"
     d="M 337.08626,98.960498 240.06523,303.54507"
     style="fill:none;fill-rule:evenodd;stroke:#d78c79;stroke-width:2;stroke-linecap:butt;stroke-linejoin:miter;stroke-miterlimit:4;stroke-dasharray:none;stroke-opacity:1" /><path
     id="path4218"
     d="m 400.09582,143.19614 -81.6024,177.9215"
     style="fill:none;fill-rule:evenodd;stroke:#d78c79;stroke-width:2;stroke-linecap:butt;stroke-linejoin:miter;stroke-miterlimit:4;stroke-dasharray:none;stroke-opacity:1" /><path
     id="path4220"
     d="M 437.76138,233.67679 385.59585,358.29316"
     style="fill:none;fill-rule:evenodd;stroke:#d78c79;stroke-width:2;stroke-linecap:butt;stroke-linejoin:miter;stroke-miterlimit:4;stroke-dasharray:none;stroke-opacity:1" /><g
     transform="matrix(0.79282215,-0.60945307,0.60945307,0.79282215,-53.439775,-15.564077)"
     id="g4322"><g
       transform="matrix(0.99958051,-0.02896224,0.02896224,0.99958051,-6.786985,-14.345293)"
       id="g4173"><g
         transform="matrix(-0.76846965,-1.5692332,1.5692332,-0.76846965,-189.11503,365.07337)"
         id="g4181"><path
           id="rect4147"
           d="m 320.80273,17.027344 c -0.96169,0.03287 -1.92479,0.343207 -2.76562,0.953125 l -56.66406,41.101562 c -2.24223,1.626446 -2.73778,4.74215 -1.11133,6.984375 L 385.16211,238.25391 c 1.62645,2.24222 4.74215,2.73777 6.98437,1.11132 l 56.66211,-41.10156 c 2.24223,-1.62644 2.73778,-4.7402 1.11133,-6.98242 L 325.01953,19.091797 c -1.01653,-1.401391 -2.61398,-2.119229 -4.2168,-2.064453 z m 84.69141,173.078126 a 8.375,8.375 0 0 1 7.00977,3.45508 8.375,8.375 0 0 1 -1.86133,11.69531 8.375,8.375 0 0 1 -11.69727,-1.86133 8.375,8.375 0 0 1 1.86133,-11.69726 8.375,8.375 0 0 1 4.6875,-1.5918 z"
           style="opacity:1;fill:#333a43;fill-opacity:1;stroke:none"
           transform="matrix(0.8094675,0.58716468,-0.58716468,0.8094675,-341.46304,-142.37854)" /><g
           id="g4300"><rect
             ry="4.375"
             y="63.915756"
             x="-164.58075"
             height="70"
             width="70"
             id="rect4293"
             style="opacity:1;fill:#fdbe4d;fill-opacity:1;stroke:none" /><rect
             ry="0"
             y="63.915756"
             x="-130.08075"
             height="70"
             width="1"
             id="rect4261"
             style="opacity:1;fill:#333a43;fill-opacity:1;stroke:none" /><rect
             ry="0"
             y="63.915756"
             x="-147.83099"
             height="70"
             width="1"
             id="rect4261-2"
             style="opacity:1;fill:#333a43;fill-opacity:1;stroke:none" /><rect
             ry="0"
             y="63.915756"
             x="-112.331"
             height="70"
             width="1"
             id="rect4261-2-7"
             style="opacity:1;fill:#333a43;fill-opacity:1;stroke:none" /></g></g></g></g></svg>